<svg xmlns="http://www.w3.org/2000/svg" width="3950" height="993.107" viewBox="0 0 2962.5 744.83">
  <defs>
    <clipPath id="a">
      <path d="M0 0h616v744.828H0Zm0 0"/>
    </clipPath>
    <clipPath id="b">
      <path d="M2815 0h147.5v257H2815Zm0 0"/>
    </clipPath>
  </defs>
  <g clip-path="url(#a)">
    <path style="stroke:none;fill-rule:nonzero;fill:#fff;fill-opacity:1" d="M437.07 325.863c1.293 2.586 1.293 6.465 1.293 9.051 0 6.469-2.586 11.64-7.758 15.52-3.878 2.586-15.52 10.343-29.742 12.93-6.468 1.292-11.636 2.585-16.812 2.585-1.293 0-2.586 1.293-3.88 1.293 1.294 1.293 1.294 2.586 1.294 3.88 0 3.882-2.586 6.468-6.465 6.468s-6.465-2.586-6.465-6.469c0-3.879 1.293-6.465 3.88-9.05 1.292-1.294 2.585-1.294 3.878-1.294 1.293 0 3.879-1.293 5.172-1.293 5.176-1.293 10.348-2.586 18.105-3.879 12.93-2.585 23.274-7.757 25.864-10.343 3.878-2.586 5.171-5.172 5.171-9.051 0-1.297 0-3.883-1.293-6.469-1.292-1.293-2.585-3.879-5.171-3.879-2.59-1.293-6.47-1.293-9.055-1.293H412.5c-5.172 0-12.93 3.88-19.395 7.758 0 0-34.914 36.207-38.793 40.086-3.878 5.176-12.933 16.813-29.742 18.106 1.293 0 2.586 1.293 2.586 2.585 0 1.293-1.293 3.88-3.879 3.88h-1.293l5.172 11.636h16.809c1.293 0 3.879 1.293 3.879 3.883 0 1.293-1.293 3.879-3.88 3.879h-69.827c-1.293 0-3.88-1.293-3.88-3.88 0-1.292 1.294-3.882 3.88-3.882h16.812l5.172-11.637h-1.293c-1.293 0-3.879-1.293-3.879-3.879 0-1.293 1.293-2.585 2.586-2.585h-1.293s-21.984-6.465-34.914-24.57c-3.879-5.173-16.808-23.274-28.45-25.86-7.757-1.293-40.085-5.176-40.085-5.176-2.586 0-3.879-2.586-3.879-5.172s2.586-3.879 5.172-3.879c0 0 6.465 0 12.934 1.293-1.293 0-2.586-1.293-1.293-3.879 0-1.293 1.293-2.586 2.585-2.586-3.878-1.293-7.761-7.757-7.761-11.636 0-3.88 1.293-9.051 1.293-9.051s1.293 3.879 3.883 6.465c2.585 3.879 6.46 3.879 6.46 3.879s-1.292-1.293-1.292-5.172c-1.29-6.465 6.468-12.934 7.761-11.64 1.293 10.347 6.465 14.226 6.465 14.226s1.293 0 3.879-3.88c2.586-3.878 1.293-9.054 1.293-9.054s6.465 5.176 6.465 10.348c0 6.465 0 6.465-1.293 6.465 0 1.293 5.172-1.293 5.172-6.465 0-1.293 2.59 7.758 0 10.344-2.586 3.878-5.172 6.464-7.758 6.464 1.293 1.293 1.293 1.293 1.293 2.586s-1.293 2.586-3.879 2.586h3.879c5.172 1.293 16.812 1.293 27.156 2.586h7.758c-1.293 0-2.586-1.293-2.586-2.586 0-2.586 1.293-3.879 3.879-3.879h24.57l5.172-7.757c-1.293 0-1.293-1.293-1.293-2.586s1.293-3.88 3.879-3.88h7.758c-1.293-1.292-2.586-2.585-2.586-5.171 0-2.586 2.586-5.172 5.172-5.172 2.59 0 5.176 2.586 5.176 5.172s-1.293 3.879-2.59 5.172h9.054c1.293 0 3.88 1.293 3.88 3.879 0 1.293-1.294 2.586-1.294 2.586l3.88 7.757h25.863c1.293 0 3.875 1.293 3.875 3.88 0 1.292-1.29 2.585-2.582 2.585h16.808c6.465 0 11.637-2.586 15.516-5.172 1.297-1.293 3.883-2.586 5.175-3.879 6.465-3.878 14.223-7.757 21.981-9.05h2.586c3.879 0 7.758 0 11.64 1.293 2.586 5.171 6.465 7.757 9.051 12.93m169.395 86.64-7.758 3.879c-2.586 1.293-5.172 3.879-6.465 5.172l-1.293 1.293-3.879 5.172-3.879-5.172s-10.347-12.934-31.035-12.934c-10.343 0-18.105 3.883-24.57 6.469-2.586 1.293-5.172 3.879-6.465 5.172-1.293 0-1.293 1.293-1.293 1.293l-3.879 5.172-3.879-5.172s-10.343-12.934-31.035-12.934c-10.344 0-18.101 3.883-23.277 6.469-2.586 1.293-3.88 3.879-5.172 3.879l-1.293 1.293-3.879 5.172-3.879-5.172S433.191 408.62 412.5 408.62c-11.637 0-18.102 1.293-21.98 2.59-2.586 1.293-2.586 1.293-3.88 1.293-1.296 1.293-3.882 9.05-3.882 25.86 0 10.347 3.883 18.105 6.469 23.277 1.293 2.586 3.878 5.171 5.171 6.464 0 1.293 1.293 1.293 1.293 1.293l5.172 3.88-5.172 3.878s-12.933 10.348-12.933 31.035c0 10.344 3.883 18.106 6.469 23.278 1.293 2.586 3.878 5.172 5.171 6.465l1.293 1.293 5.172 3.878-5.172 3.88c-1.293 0-12.933 11.636-12.933 32.327 0 10.344 3.883 18.102 6.469 23.278 1.293 2.586 3.878 5.172 5.171 6.465l1.293 1.293 5.172 3.879-5.172 3.878s-12.933 11.637-12.933 32.329c0 10.343 3.883 18.101 6.469 23.273 1.293 2.586 3.878 5.176 5.171 6.469l1.293 1.293 5.172 3.879-5.172 3.879s-7.757 7.757-11.64 19.394c-36.203 16.813-64.653 23.277-72.41 23.277-6.47 0-31.036-5.171-63.364-19.398-2.59-15.516-11.636-23.273-12.933-23.273l-5.172-3.88 5.172-3.878 1.297-1.293c1.293-1.293 2.586-2.59 5.172-6.469 3.875-5.172 6.464-12.93 6.464-23.273 0-20.692-12.933-31.036-12.933-32.329l-5.172-3.878 5.172-3.88 1.297-1.292c1.293-1.293 2.586-2.586 5.172-6.465 3.875-5.176 6.464-12.934 6.464-23.278 0-20.69-12.933-31.035-12.933-32.328l-5.172-3.879 5.172-3.878 1.297-1.293c1.293-1.293 2.586-2.586 5.172-6.465 3.875-5.172 6.464-12.934 6.464-23.278 0-20.687-12.933-31.035-12.933-31.035l-5.172-3.879 5.172-3.879 1.297-1.293c1.293-1.293 2.586-2.585 5.172-6.464 3.875-5.172 6.464-12.93 6.464-23.278 0-18.101-3.882-24.566-3.882-25.86-1.29 0-1.29-1.292-3.875-1.292-3.88-1.297-10.348-2.59-21.985-2.59-20.691 0-31.035 12.934-31.035 12.934l-3.879 5.172-3.879-5.172-1.293-1.293c-1.293-1.293-2.586-2.586-5.172-3.88-5.172-3.878-12.933-6.468-23.277-6.468-20.688 0-31.035 12.934-31.035 12.934l-3.88 5.172-11.636-5.172-1.293-1.293c-1.293-1.293-3.879-2.586-6.465-5.172-5.171-3.88-12.933-6.469-24.57-6.469-20.691 0-31.035 12.934-31.035 12.934l-3.879 5.172-3.879-5.172-1.293-1.293c-1.293-1.293-3.879-2.586-6.465-5.172-3.879-2.586-9.05-5.172-15.52-5.172V280.605c6.47-1.293 11.641-3.878 15.52-6.464 2.586-1.293 5.172-3.88 6.465-3.88 1.293 0 1.293-1.292 1.293-1.292l3.879-5.172 3.879 5.172s10.344 12.93 31.035 12.93c10.344 0 18.102-3.88 24.57-6.465 2.586-1.293 5.172-3.88 6.465-3.88l1.293-1.292 3.88-5.172 3.878 5.172s10.344 12.93 31.035 12.93c10.344 0 18.102-3.88 23.278-6.465 2.585-1.293 3.875-3.88 5.167-5.172l1.297-1.293 3.88-5.172 3.878 5.172s10.344 12.93 31.035 12.93c11.637 0 18.102-1.294 21.98-2.587 2.587-1.293 2.587-1.293 3.88-1.293 1.297-1.292 3.883-9.05 3.883-25.863 0-10.344-3.883-18.101-6.47-23.273-1.292-2.586-3.878-5.172-5.171-5.172l-1.293-1.293-1.293-7.762 5.172-3.879s12.93-10.343 12.93-31.035c0-10.344-3.875-18.101-6.461-23.273-1.297-2.586-3.883-5.172-5.176-6.465l-1.293-1.293-5.172-3.883 5.172-3.879s12.93-11.637 12.93-31.031c0-10.348-3.875-18.106-6.461-23.277-1.297-2.586-3.883-5.172-5.176-6.465 0-1.293-1.293-1.293-1.293-1.293l-5.172-6.465 6.465-5.176s12.93-11.637 12.93-32.324c0-10.348-3.875-18.106-6.461-23.277-1.293-1.293-2.59-2.586-2.59-3.88h151.297c-1.293 1.294-1.293 2.587-2.59 3.88-3.88 5.171-6.465 12.93-6.465 23.277 0 20.687 12.933 31.031 12.933 32.324l5.172 5.176-5.171 3.879-1.293 1.293c-1.293 1.293-2.586 2.586-5.176 6.465-3.88 5.172-6.465 12.93-6.465 23.273 0 20.692 12.933 31.035 12.933 31.035l5.172 3.88-5.171 3.878-1.293 1.297c-1.293 1.293-2.586 2.586-5.176 6.465-3.88 5.172-6.465 12.93-6.465 23.273 0 20.692 12.933 31.035 12.933 31.035l5.172 3.88-5.171 3.878-1.293 1.293-5.176 5.176c-3.88 5.172-6.465 12.93-6.465 23.273 0 18.106 3.879 24.57 3.879 25.864 1.293 0 1.293 1.293 3.883 1.293 3.879 1.293 11.636 2.586 21.98 2.586 20.692 0 31.035-12.93 31.035-12.93l3.88-5.176 3.878 5.176 1.293 1.293 5.172 5.172c5.172 3.879 12.933 6.465 23.277 6.465 20.688 0 31.035-12.93 31.035-12.93l3.88-5.176 3.878 5.176 1.293 1.293c1.293 1.293 3.88 2.586 6.465 3.879 5.172 3.879 12.93 6.465 24.57 6.465 20.688 0 31.035-12.93 31.035-12.93l3.88-5.176 3.878 5.176 1.293 1.293c1.293 1.293 3.88 2.586 6.465 3.879l7.758 3.879v140.949Zm-55.602 53.016c-1.293 2.585-2.586 3.878-6.468 6.464l-1.29 1.293c-3.878 2.586-9.054 3.88-9.054 3.88h3.883c2.586 0 5.171-1.294 7.757-1.294 0 0 0 1.293-1.296 1.293 0 0-1.29 1.293-3.875 2.586-1.293 1.293-2.586 1.293-5.176 2.586-3.88 2.586-5.172 2.586-5.172 2.586h-1.293v1.297h2.586c1.293 0 5.176-1.297 6.469-1.297v1.297c0 1.293-1.293 3.879-3.883 5.172-1.293 1.293-7.758 2.586-9.051 2.586 0 0 3.879 0 6.465 1.293l1.293 1.293c0 1.293 0 2.586-1.293 3.879 0 0-3.88 2.586-6.465 2.586h-3.879s5.172 1.293 6.465 2.585v1.293c0 1.293-1.293 1.293-1.293 2.586L525 510.777s-1.293 0-2.586-1.293c-2.586-1.293-5.172-1.293-5.172-1.293s0 1.293 1.293 2.586l1.293 1.293 2.586 2.586c0 1.293 0 2.586-2.586 5.172l-1.293 6.469v-1.293c0-1.293 0-2.59-1.293-3.883-1.293-2.586-3.879-5.172-3.879-5.172 1.293 6.465 3.88 12.934 3.88 12.934 0 1.293-2.587 2.586-2.587 2.586v-2.586l-2.586-2.586s0 2.586 1.293 5.172c0 1.293 1.293 1.293 0 2.586l-1.293 1.293c-1.293 1.293-3.879 0-5.175 0-1.29-1.293-1.29-1.293 0-2.586 1.296-2.586 0-2.586 0-3.88h-1.29c-1.293 0-1.293 1.294-1.293 1.294 0 1.293 1.293 6.465 0 7.758 0 1.293-1.292 1.293-2.585 1.293h-3.883v-12.93c0-2.586 0-3.883 1.297-3.883 1.293 0 6.464-3.879 10.343-11.637 1.293-1.293 2.586-3.879 3.88-6.464 3.878-7.758 11.636-21.985 15.515-27.157 1.293 1.293 2.586 2.586 5.172 1.293 1.293 0 2.59-2.586 2.59-3.879v-2.586c6.464-2.586 15.515-9.05 18.101-10.343h1.293c-3.879-2.586-5.172 1.293-5.172 3.879M528.88 592.242s-1.293 1.293-2.586 1.293l-14.223-3.879c-1.293 0-2.586-1.293-2.586-2.586s0-2.586 1.293-2.586l2.586-1.293-19.398-16.808c-1.293-1.293-1.293-1.293-1.293-2.586s1.293-1.293 2.586-2.586l10.347-2.59-12.933-12.93v-6.464h1.293s1.293 0 1.293 1.293l18.105 18.101c1.293 1.293 1.293 1.293 1.293 2.59 0 1.293-1.293 1.293-2.586 2.586l-9.05 1.293 14.222 12.93 1.293-3.88c0-1.292 1.293-2.585 2.586-2.585s2.586 1.293 2.586 1.293l5.172 14.222c1.293 2.586 1.293 3.88 0 5.172m-33.621 14.227c0-1.293-1.293-2.586-2.586-3.88-2.586-2.585-5.172-2.585-5.172-2.585s1.293 1.293 1.293 3.879c0 3.879-2.586 9.05-3.879 9.05-2.586-7.757-6.465-10.343-6.465-10.343s-1.293 1.293-2.586 3.879c-1.293 2.586 0 5.172 0 6.465-1.293-1.293-3.879-3.88-5.172-6.465v-5.172c-1.296 0-3.878 2.586-3.878 5.172 0 0-1.293-1.293-1.293-2.586s-1.293-2.586 0-5.172c1.293-2.59 3.875-5.176 5.171-5.176h20.688c2.586 1.293 5.172 5.176 6.465 7.762-2.586 1.293-2.586 3.879-2.586 5.172m-33.617-40.086-19.399 16.808 2.586 1.293c1.293 0 1.293 1.293 1.293 2.586s-1.293 2.586-2.586 2.586l-14.223 3.88c-1.292 0-1.292 0-2.585-1.294v-2.586l5.171-14.222c0-1.293 1.293-1.293 2.586-1.293s2.586 1.293 2.586 2.586l1.293 3.878 14.223-12.93-10.344-2.585c-1.293 0-1.293-1.293-2.586-2.586 0-1.293 0-2.59 1.293-2.59l18.102-18.101s1.293 0 1.293-1.293h1.297v6.464l-12.934 12.93 10.344 2.59c1.293 0 2.59 1.293 2.59 2.586 1.293-1.293 0 0 0 1.293m6.464 14.222h21.98c2.587 0 5.173 2.586 5.173 5.172s-2.586 5.172-5.172 5.172h-21.98c-2.586 0-5.172-2.586-5.172-5.172s2.586-5.172 5.171-5.172m-5.171-107.328c0-2.586 2.586-5.172 5.171-5.172h21.98c2.587 0 5.173 2.586 5.173 5.172s-2.586 5.172-5.172 5.172h-21.98c-2.586-1.293-5.172-2.586-5.172-5.172m5.171 7.758H487.5c1.293 6.469 2.586 27.156 2.586 47.848 0 21.98-2.586 46.55-3.879 49.137v1.293h-19.394v-1.293s-3.88-24.57-3.88-49.137c2.587-21.985 5.172-42.672 5.172-47.848m46.551-15.515c-1.293 0-2.586-1.293-2.586-2.586s0-2.586 1.293-2.586L525 451.297c1.293 0 1.293-1.293 2.586 0 1.293 0 1.293 1.293 1.293 1.293v15.515c0 1.293-1.293 2.586-1.293 2.586-1.293 0-2.586 0-2.586-1.293l-1.293-2.586-11.637 21.985c0 1.293-1.293 1.293-2.586 1.293s-2.59 0-2.59-1.293l-5.167-10.348-10.348 19.399v-10.344l9.055-15.52c0-1.293 1.293-1.293 2.586-1.293s2.585 0 2.585 1.293l5.172 9.051 9.051-16.808Zm-43.965-7.758s-1.293-1.293-1.293-3.88c0-3.878 2.586-9.054 3.88-9.054 2.585 7.762 6.464 10.348 6.464 10.348s1.293-1.293 2.586-3.88c1.293-2.585 0-5.175 0-6.468 1.293 1.293 3.879 3.883 5.172 6.469v5.172c1.293 0 3.879-2.586 3.879-5.172 0 0 1.293 1.293 1.293 2.586s1.293 2.586 0 5.172-3.879 5.172-5.172 5.172h-20.688c-2.585-1.293-5.171-5.172-6.468-7.758v-5.172c0 1.293 1.297 2.586 2.59 3.879 3.878 2.586 6.46 2.586 7.757 2.586m-24.57 24.566 5.172-9.05c0-1.294 1.293-1.294 2.586-1.294s2.586 0 2.586 1.293l9.055 14.227v10.344l-10.348-18.106L450 490.09c0 1.293-1.293 1.293-2.586 1.293s-2.586 0-2.586-1.293l-11.637-21.985-1.296 2.586c-1.29 1.293-2.582 1.293-2.582 1.293-1.293 0-1.293-1.293-1.293-2.586v-15.515c0-1.293 1.293-1.293 1.293-1.293h2.582l11.64 9.05c1.293 1.294 1.293 1.294 1.293 2.587 0 1.293-1.293 2.586-2.586 2.586h-3.879Zm-21.98 18.106s-1.297-2.586-1.297-3.88l1.297-1.292c2.586-1.293 6.464-1.293 6.464-1.293-2.585 0-7.761-1.293-9.054-2.586-1.293-1.293-2.586-3.88-3.88-5.172v-1.297c1.294 0 6.47 1.297 7.763 1.297h2.586v-1.297s-1.293 0-5.176-2.586c-2.586-1.293-3.88-2.586-5.172-2.586-1.293-1.293-2.586-1.293-3.879-2.586 0 0 0-1.293-1.293-1.293 1.293 0 5.172 1.293 7.758 1.293h3.879s-5.172-1.293-9.051-3.879l-1.293-1.293c-2.586-2.586-5.172-3.879-6.465-6.464 0-1.293-1.293-5.172-1.293-6.465h1.293c2.586 1.293 11.637 6.465 18.106 10.343v2.586c0 2.586 1.293 3.88 2.586 3.88s3.875 0 5.171-1.294c3.88 6.465 11.637 19.399 15.516 27.157 1.293 2.586 2.586 5.171 3.879 6.464 3.879 6.465 9.055 10.344 10.348 11.637 0 0 1.293 1.293 1.293 3.883v12.93h-3.883c-1.293 0-2.586 0-2.586-1.293v-7.758l-1.293-1.293h-1.293c0 1.293-1.293 2.586 0 3.879v2.586c-1.293 1.293-2.586 1.293-5.172 0 0 0-1.293 0-1.293-1.293v-2.586C450 527.59 450 523.71 450 523.71s-2.586 1.293-2.586 2.586v2.586c-1.293 0-2.586-1.293-2.586-2.586s1.293-7.762 3.879-12.934h-1.293s-2.586 2.586-3.879 5.172c0 1.293-1.293 2.586-1.293 3.88v1.296s-1.293 0-2.586-2.59c-2.586-2.586-2.586-5.172-2.586-5.172 0-1.293 1.293-1.293 2.586-2.586l1.293-1.293c1.293-1.293 1.293-2.586 1.293-2.586s-2.586 0-5.172 1.293c-1.293 0-1.293 1.293-2.586 1.293 0 0 0-1.293-1.293-1.293 0-1.293-1.296-1.293-1.296-2.586v-1.293c1.296-1.293 6.468-2.586 6.468-2.586h-3.879c-6.464-1.292-10.343-3.878-10.343-3.878M42.67 99.57c7.759 6.465 29.743 23.278 54.313 24.57h1.293V75.005h-24.57V51.727h24.57v-24.57h23.274v23.277h23.277V73.71H121.55v49.137h1.293c23.277 0 45.261-16.813 53.02-24.57v65.949c-7.759-6.465-29.743-23.278-53.02-23.278h-1.293v51.727h24.57v23.273h-24.57v28.45H98.277v-28.45h-24.57v-23.273h23.277v-51.727h-1.293c-23.277 0-46.554 16.813-54.312 23.278V99.57ZM396.985.004H0v417.672c0 36.207 14.223 71.12 29.742 103.445 24.567 51.727 76.293 117.676 134.485 160.348l11.636 7.758c1.293 1.293 2.586 1.293 3.88 2.586 2.585 1.292 5.171 3.878 7.757 5.171 1.293 1.293 2.586 1.293 5.172 2.586s3.879 2.586 6.465 3.88c1.297 1.292 3.883 1.292 5.175 2.585 2.583 1.293 3.875 2.586 6.465 3.88 1.293 1.292 3.88 1.292 5.172 2.585 2.586 1.297 3.88 2.59 6.465 2.59 1.293 1.293 3.879 1.293 5.172 2.586 2.586 1.293 3.879 1.293 6.465 2.586 1.293 1.293 2.586 1.293 5.176 2.586 2.585 1.293 6.46 2.586 9.05 3.879 32.328 12.93 55.602 18.101 63.364 18.101 7.754 0 34.91-6.465 69.824-21.98 2.586-1.293 5.176-2.586 7.762-3.88-2.586 1.294-1.293 1.294-1.293 1.294 2.586-1.293 5.171-2.586 6.46-3.88 1.297 0 2.59-1.292 3.883-1.292 2.586-1.293 5.172-2.59 7.758-3.883l7.758-3.879c1.293-1.293 2.586-1.293 3.879-2.586 2.586-1.293 3.879-2.586 6.465-3.879 1.297-1.293 2.59-1.293 3.883-2.586 2.585-1.293 5.171-2.586 7.757-5.172 1.293-1.293 2.586-1.293 3.88-2.585l11.636-7.758c58.191-42.672 109.914-108.621 134.484-160.348 15.516-33.617 29.743-68.531 29.743-103.445V.004H396.984"/>
  </g>
  <path style="stroke:none;fill-rule:nonzero;fill:#fff;fill-opacity:1" d="M766.813.004v254.738h161.636v-34.914H805.605V.004h-38.793m287.067 113.793c-6.469-6.469-15.52-10.348-27.16-10.348-10.34 0-19.39 3.88-25.86 10.348-11.632 11.637-12.925 29.738-12.925 49.137 0 19.394 1.293 38.793 12.925 49.136 6.47 6.465 15.52 10.344 25.86 10.344 10.351 0 20.691-3.879 27.16-10.344 11.64-11.636 12.93-29.742 12.93-49.136 0-18.106-1.29-37.5-12.93-49.137m28.45 121.55c-11.638 11.637-29.74 21.981-54.31 21.981-24.57 0-42.675-9.05-54.312-21.98-16.809-18.106-21.98-41.38-21.98-71.121 0-31.036 3.878-53.016 21.98-71.122 11.637-11.636 29.742-21.984 54.313-21.984 24.57 0 42.671 9.055 54.308 21.984 16.813 18.106 21.98 41.38 21.98 71.122-1.288 31.035-5.167 53.015-21.98 71.12m171.981 19.395v-18.101c-12.93 14.222-29.739 20.687-47.84 20.687-18.11 0-33.63-6.465-45.258-16.808-14.23-14.223-18.11-31.036-18.11-51.723V73.71h36.208v109.91c0 28.45 15.52 40.09 36.21 40.09 20.692 0 37.5-12.934 37.5-40.09V73.711h36.2v181.031h-34.91m151.293-151.292c-32.32 0-37.5 28.448-37.5 56.898 0 28.449 3.878 56.894 37.5 56.894 32.328 0 36.207-28.445 36.207-56.894 0-28.45-3.88-56.899-36.207-56.899m-5.172 226.293c-27.149 0-45.258-6.465-64.649-24.566l23.27-23.278c11.64 10.344 21.988 15.516 38.789 15.516 31.039 0 42.68-21.98 42.68-46.55V227.59c-12.93 15.515-28.45 20.687-46.551 20.687-18.11 0-33.63-6.464-42.68-15.515-18.098-18.106-20.687-42.672-20.687-73.707 0-31.035 2.59-55.606 20.687-73.707 10.352-10.344 25.871-15.52 43.973-15.52 19.398 0 33.617 5.176 47.84 21.984v-18.1h34.918V253.45c0 45.262-28.45 76.293-77.59 76.293m237.93-75.001V144.828c0-28.445-15.52-40.086-36.2-40.086-20.691 0-37.5 12.934-37.5 40.086v109.914h-36.21V.004h36.21v91.808c11.63-12.93 28.442-20.69 47.84-20.69 18.102 0 33.621 6.468 45.262 16.812 14.218 14.222 18.097 31.035 18.097 51.722v116.38h-37.5v-1.294M1797.41 103.45c-33.62 0-37.5 28.448-37.5 59.484 0 32.328 5.18 60.777 37.5 60.777 32.328 0 37.5-28.45 37.5-60.777 1.3-31.036-3.87-59.485-37.5-59.485m54.309 137.07c-10.34 10.344-25.86 15.516-43.957 15.516-19.403 0-34.922-5.172-47.852-21.98v20.687h-36.2V.004h36.2v91.808c12.93-15.515 28.45-20.69 47.852-20.69 18.097 0 33.617 6.468 43.957 15.519 18.11 18.101 20.691 46.55 20.691 76.293 0 31.035-2.582 59.48-20.691 77.586m155.179-126.723c-6.468-6.469-15.52-10.348-27.16-10.348-10.34 0-19.398 3.88-25.86 10.348-11.64 11.637-12.929 29.738-12.929 49.137 0 19.394 1.29 38.793 12.93 49.136 6.46 6.465 15.52 10.344 25.86 10.344 10.35 0 20.69-3.879 27.16-10.344 11.632-11.636 12.93-29.742 12.93-49.136 0-18.106-1.29-37.5-12.93-49.137m28.44 121.55c-11.628 11.637-29.737 21.981-54.308 21.981-24.562 0-42.672-9.05-54.312-21.98-16.809-18.106-21.98-41.38-21.98-71.121 0-31.036 3.882-53.016 21.98-71.122 11.64-11.636 29.75-21.984 54.312-21.984 24.57 0 42.68 9.055 54.309 21.984 16.82 18.106 21.988 41.38 21.988 71.122-1.297 31.035-5.168 53.015-21.988 71.12m161.64-118.964c-7.761-7.762-14.218-11.64-27.152-11.64-19.398 0-36.207 15.519-36.207 41.378v108.621h-36.21V73.711h36.21v19.394c9.05-12.93 28.45-21.984 47.848-21.984 18.101 0 31.031 5.176 42.672 16.813l-27.16 28.449m143.539-2.586c-6.47-6.469-15.52-10.348-27.16-10.348-10.34 0-19.391 3.88-25.86 10.348-11.64 11.637-12.93 29.738-12.93 49.137 0 19.394 1.29 38.793 12.93 49.136 6.469 6.465 15.52 10.344 25.86 10.344 10.35 0 19.402-3.879 27.16-10.344 11.64-11.636 12.93-29.742 12.93-49.136 0-18.106-1.29-37.5-12.93-49.137m27.152 121.55c-11.633 11.637-29.742 21.981-54.313 21.981-24.57 0-42.668-9.05-54.308-21.98-16.813-18.106-21.98-41.38-21.98-71.121 0-31.036 3.878-53.016 21.98-71.122 11.64-11.636 29.738-21.984 54.308-21.984s42.68 9.055 54.313 21.984c16.808 18.106 21.988 41.38 21.988 71.122 0 31.035-3.879 53.015-21.988 71.12m173.278 19.395v-18.101c-12.93 14.222-29.74 20.687-47.848 20.687-18.102 0-33.622-6.465-45.262-16.808-14.219-14.223-18.102-31.036-18.102-51.723V73.71h36.211v109.91c0 28.45 15.52 40.09 36.211 40.09 20.692 0 37.5-12.934 37.5-40.09V73.711h36.2v181.031h-34.91m150-151.292c-32.329 0-37.5 28.448-37.5 56.898 0 28.449 3.878 56.894 37.5 56.894 32.331 0 36.21-28.445 36.21-56.894 1.29-28.45-2.59-56.899-36.21-56.899m-3.88 226.293c-27.16 0-45.261-6.465-63.36-24.566l23.27-23.278c11.641 10.344 21.989 15.516 38.801 15.516 31.028 0 42.668-21.98 42.668-46.55V227.59c-12.93 15.515-28.449 20.687-46.55 20.687-18.11 0-33.618-6.464-42.68-15.515-18.098-18.106-20.688-42.672-20.688-73.707 0-31.035 2.59-55.606 20.688-73.707 10.351-10.344 25.87-15.52 43.972-15.52 19.399 0 33.618 5.176 47.84 21.984v-18.1h34.918V253.45c-1.289 45.262-31.039 76.293-78.879 76.293"/>
  <g clip-path="url(#b)">
    <path style="stroke:none;fill-rule:nonzero;fill:#fff;fill-opacity:1" d="M2925 254.742V144.828c0-28.445-15.52-40.086-36.21-40.086-20.688 0-37.5 12.934-37.5 40.086v109.914h-36.2V.004h36.2v91.808c11.64-12.93 28.448-20.69 47.85-20.69 18.098 0 33.622 6.468 45.258 16.812 14.223 14.222 18.102 31.035 18.102 51.722v116.38H2925v-1.294"/>
  </g>
  <path style="stroke:none;fill-rule:nonzero;fill:#fff;fill-opacity:1" d="M858.621 614.227c-51.723 0-91.808-34.914-91.808-87.93V358.19h38.792v166.813c0 33.617 20.688 55.601 53.016 55.601s53.016-20.69 53.016-55.601V358.19h38.797v168.106c0 53.015-40.09 87.93-91.813 87.93m252.16-1.292V503.02c0-28.45-15.52-40.086-36.21-40.086-20.692 0-37.5 12.93-37.5 40.086v109.914h-36.212V431.898h36.211v18.106c12.93-12.934 29.739-20.692 47.84-20.692 18.11 0 33.621 6.465 45.262 16.81 14.226 14.226 18.11 31.034 18.11 51.726v116.379h-37.5v-1.293m85.339-182.329h36.207v181.036h-36.207Zm-1.293-73.707h38.793v38.793h-38.793v-38.793m157.762 256.036h-29.75l-65.942-182.329h37.5l43.961 128.016 41.38-128.016h38.792l-65.941 182.329m193.96-130.606c-6.46-14.223-18.1-23.273-36.21-23.273-18.102 0-29.738 9.05-36.2 23.273-3.878 7.762-3.878 12.934-5.171 24.57h81.46c0-11.636 0-16.808-3.878-24.57m-76.29 50.434c0 31.035 15.52 50.43 46.548 50.43 20.691 0 31.03-5.172 43.972-18.102l23.27 21.98c-18.102 18.106-36.211 28.45-68.531 28.45-45.258 0-81.47-24.57-81.47-93.106 0-59.48 31.04-93.101 76.29-93.101 49.14 0 77.59 34.914 77.59 87.93v15.519h-117.668m257.328-59.485c-7.762-7.757-14.23-11.636-27.16-11.636-19.39 0-36.211 15.515-36.211 41.379v109.914h-36.2V431.898h36.2v19.399c9.062-12.934 28.453-21.985 47.851-21.985 18.102 0 31.032 5.172 42.668 16.81l-27.148 27.155m108.62 140.95c-29.741 0-54.312-5.172-76.3-25.864l24.57-24.566c14.23 15.515 34.918 19.394 51.73 19.394 21.981 0 40.08-7.757 40.08-24.57 0-12.93-6.462-19.394-24.571-21.98l-28.438-2.586c-34.922-2.586-53.02-18.106-53.02-50.434 0-36.207 29.739-55.601 68.528-55.601 27.16 0 50.43 5.171 67.25 20.69l-23.277 23.274c-11.64-9.05-27.16-12.93-45.262-12.93-21.98 0-32.328 9.051-32.328 23.274 0 12.934 7.758 19.399 24.566 20.692l25.864 2.585c37.5 3.88 56.898 19.399 56.898 51.723-1.29 37.5-33.621 56.899-76.29 56.899m111.2-183.622h36.211v181.036h-36.21Zm-1.289-73.707h38.79v38.793h-38.79v-38.793m142.239 256.036c-33.622 0-49.141-24.57-49.141-50.43v-103.45h-21.98v-28.449h20.69v-51.722h36.212v51.722h34.91v28.45h-34.91v100.86c0 12.933 6.46 20.69 20.687 20.69h15.512v31.036h-21.98v1.293m116.378 36.206c-3.879 10.344-7.758 16.81-12.93 21.981-10.34 10.348-23.277 12.934-37.5 12.934h-14.218v-32.328h9.05c15.52 0 20.688-5.172 25.86-19.399l10.34-28.445-63.36-173.278h38.801l42.668 128.016 42.672-128.016h38.79l-80.173 218.536"/>
</svg>
